<svg width="301" height="426" viewBox="0 0 301 426" fill="none" xmlns="http://www.w3.org/2000/svg">
<path fill-rule="evenodd" clip-rule="evenodd" d="M155.5 27C143.626 27 134 36.6259 134 48.5V69.5C134 80.5658 142.36 89.679 153.109 90.8685C153.111 90.9197 153.114 90.971 153.117 91.0225H182.117C186.701 86.5438 182.209 57.9923 178.762 45.2902C177.212 34.9385 168.283 27 157.5 27H155.5Z" fill="#191847"/>
<path fill-rule="evenodd" clip-rule="evenodd" d="M156.935 75.2443C163.411 79.1475 169.774 81.0333 172.76 80.2635C180.25 78.333 180.938 50.9351 175.143 40.1339C169.349 29.3328 139.558 24.625 138.057 46.0255C137.536 53.4529 140.654 60.0814 145.262 65.4901L137 104H161L156.935 75.2443Z" fill="#B28B67"/>
<path fill-rule="evenodd" clip-rule="evenodd" d="M134.881 46.1504C135.578 45.4614 136.252 44.7947 136.921 44.1981L136.889 43.4207C136.889 43.4207 144.421 28 156.001 28C167.571 28 171.23 33.3787 174.34 37.9508L174.349 37.9631C172.722 43.5452 167.819 45.8037 162.274 48.3579C159.887 49.4574 157.381 50.6117 154.966 52.1095C154.02 51.341 152.814 50.8804 151.5 50.8804C148.462 50.8804 146 53.3428 146 56.3804C146 59.418 148.462 61.8804 151.5 61.8804C151.584 61.8804 151.667 61.8785 151.75 61.8748C152.856 73.7528 152.413 87.3173 149.117 90.5371H120.117C119.285 76.0731 123.026 71.947 126.85 67.7307C130.447 63.7635 134.117 59.7166 134.117 46.9028C134.375 46.6506 134.63 46.3991 134.881 46.1505L134.881 46.1504Z" fill="#191847"/>
<path fill-rule="evenodd" clip-rule="evenodd" d="M98.4077 285.088C98.4077 285.088 134.392 295.153 160.5 295.153C186.607 295.153 209 279.653 209 279.653C209 279.653 173.786 269.323 151 269.323C128.214 269.323 98.4077 285.088 98.4077 285.088Z" fill="#1F28CF"/>
<path fill-rule="evenodd" clip-rule="evenodd" d="M181.267 304.824C181.036 304.477 180.84 304.098 180.685 303.689C177.479 295.208 126.117 203.726 121 187H178.826C182.717 199.717 200.227 279.52 202.691 295.442C210.467 320.557 226.475 401.895 228.519 407.53C230.669 413.458 218.572 419.633 215.349 412.346C210.22 400.75 197.999 368.665 192.557 349.074C187.456 330.708 183.302 314.184 181.267 304.824Z" fill="#B28B67"/>
<path fill-rule="evenodd" clip-rule="evenodd" d="M181.267 304.824C181.036 304.477 180.84 304.098 180.685 303.689C177.479 295.208 126.117 203.726 121 187H178.826C182.717 199.717 200.227 279.52 202.691 295.442C210.467 320.557 226.475 401.895 228.519 407.53C230.669 413.458 218.572 419.633 215.349 412.346C210.22 400.75 197.999 368.665 192.557 349.074C187.456 330.708 183.302 314.184 181.267 304.824Z" fill="black" fill-opacity="0.1"/>
<path fill-rule="evenodd" clip-rule="evenodd" d="M133.957 315.994C110.475 321.928 24.5841 332.658 18.6899 334.341C12.6265 336.072 7.31016 323.574 14.8048 320.867C26.7299 316.559 59.5892 306.606 79.5119 302.544C95.5365 299.277 110.159 296.611 119.976 295.05C119.145 267.473 115.343 201.294 117.835 187H169C166.61 200.707 146.41 300.718 142.656 310.729C141.464 314.302 137.909 315.882 133.957 315.994V315.994Z" fill="#B28B67"/>
<path fill-rule="evenodd" clip-rule="evenodd" d="M16.9311 320.074C17.2095 318.937 16.5182 317.766 15.3648 317.564C13.2611 317.195 10.1269 316.756 8.45574 317.05C5.7919 317.52 0.837842 319.309 0.837842 319.309C1.38273 322.399 10.6319 374.854 10.6319 374.854C10.6319 374.854 18.1715 375.757 17.9197 370.991C17.6679 366.226 17.5838 363.059 17.5838 363.059L24.5408 335.213C24.6774 334.667 24.3357 334.115 23.7854 333.994L19.4673 333.044C19.4673 333.044 16.691 329.081 16.215 326.381C15.9252 324.738 16.4647 321.98 16.9311 320.074Z" fill="#E4E4E4"/>
<path fill-rule="evenodd" clip-rule="evenodd" d="M214.45 410.284C213.378 409.813 212.104 410.29 211.705 411.391C210.977 413.398 210 416.409 210 418.106C210 420.811 210.901 426 210.901 426C214.039 426 267.303 426 267.303 426C267.303 426 269.502 418.732 264.765 418.152C260.028 417.573 256.895 417.106 256.895 417.106L230.68 405.419C230.165 405.189 229.563 405.43 229.348 405.951L227.663 410.039C227.663 410.039 223.278 412.085 220.537 412.085C218.868 412.085 216.246 411.074 214.45 410.284Z" fill="#E4E4E4"/>
<path fill-rule="evenodd" clip-rule="evenodd" d="M118 187C118 187 151.82 177.324 182 187C189 218.937 206.009 231.613 209 280.579C175 297.473 133 268.53 98.0001 285.005C88.0001 261.961 102 206.464 118 187Z" fill="#2B44FF"/>
<path fill-rule="evenodd" clip-rule="evenodd" d="M254.483 141.925L215 147.311L222.084 165L254.121 152.299C267.93 153.661 274.607 153.333 274.153 151.315C273.77 149.613 272.302 149.099 270.95 148.626C269.897 148.257 268.914 147.913 268.569 147.051C267.78 145.083 272.269 141.003 276.693 137.315C281.117 133.627 278.148 132.948 276.281 133.003C269.647 134.558 262.381 137.532 254.483 141.925ZM62.398 238.908C65.3285 232.963 90.9699 156.45 90.9699 156.45L112.867 156.532C112.867 156.532 76.8506 237.583 75.308 241.406C73.3041 246.372 76.708 253.587 79.0162 258.48C79.3733 259.237 79.7041 259.938 79.9847 260.567C76.782 262 75.2435 260.268 73.6216 258.442C71.7896 256.379 69.8512 254.197 65.288 256.319C63.525 257.14 61.8568 258.109 60.2269 259.057C54.5969 262.329 49.4249 265.336 42.3891 260.994C41.2737 260.306 40.0514 257.715 43.0047 255.69C50.3624 250.645 60.9654 241.815 62.398 238.908Z" fill="#997659"/>
<path fill-rule="evenodd" clip-rule="evenodd" d="M150.949 86.9999L168.094 88.142C172.317 126.343 195.316 150.473 246.811 142.304L253.652 191.499C205.523 197.719 163.313 178.45 154.662 126.278C152.423 112.773 150.655 98.7177 150.949 86.9999Z" fill="#AFB9C5"/>
<path fill-rule="evenodd" clip-rule="evenodd" d="M65.4016 229C77.3053 165.664 102.43 116.664 140.776 82H142.421H142.477L142.491 82.0159L168.468 87.9653C168.468 119.169 175.41 142.485 182.084 164.9C184.966 174.58 187.798 184.093 190 194H119.844C118.855 205.351 118.248 217.018 117.932 229H65.4016Z" fill="#C5CFD6"/>
<path fill-rule="evenodd" clip-rule="evenodd" d="M119.844 194C121.856 170.891 125.449 149.09 131.388 128.598C130.086 150.512 129.725 177.698 134.103 194H119.844Z" fill="black" fill-opacity="0.1"/>
</svg>
