<svg width="96" height="159" viewBox="0 0 96 159" fill="none" xmlns="http://www.w3.org/2000/svg">
<path fill-rule="evenodd" clip-rule="evenodd" d="M50.259 46.9789C48.3595 48.2158 46.4931 48.8134 45.617 48.5694C43.4201 47.9577 43.2182 39.2752 44.918 35.8523C46.6178 32.4294 55.3562 30.9375 55.7967 37.7194C55.9496 40.0731 55.0347 42.1737 53.6831 43.8877L56.1067 56.0916H49.0667L50.259 46.9789Z" fill="#B28B67"/>
<path fill-rule="evenodd" clip-rule="evenodd" d="M41.7991 31.1072C41.9448 30.5536 42.337 30.0796 42.8654 29.939C42.9936 29.9048 43.1259 29.8911 43.2578 29.8968C43.3051 29.8989 43.3183 29.9136 43.3404 29.8779C43.3568 29.8514 43.3572 29.7866 43.364 29.7555C43.385 29.6587 43.4112 29.5631 43.4436 29.47C43.5542 29.1523 43.74 28.8712 43.964 28.6344C44.383 28.1913 44.9491 27.8856 45.5373 27.8303C45.8592 27.8 46.1787 27.8565 46.4831 27.9696C46.6406 28.0282 46.7934 28.1011 46.9422 28.1817C46.987 28.206 47.1324 28.3249 47.1773 28.3172C47.227 28.3087 47.3268 28.1753 47.3672 28.1419C47.8663 27.7282 48.4826 27.5656 49.1042 27.5705C49.8058 27.5761 50.4815 27.614 51.0667 28.0761C51.1905 28.174 51.3085 28.2811 51.4209 28.3938C51.48 28.4532 51.5373 28.5148 51.592 28.579C51.6249 28.6177 51.657 28.6573 51.6879 28.6979C51.7404 28.7669 51.732 28.7896 51.8054 28.7414C52.087 28.5566 52.4133 28.4701 52.7421 28.5138C52.9372 28.5397 53.1272 28.603 53.3075 28.6864C53.3689 28.7147 53.511 28.8279 53.5764 28.829C53.6413 28.8301 53.7815 28.7252 53.8483 28.6985C54.2095 28.5545 54.5988 28.519 54.9784 28.5855C55.37 28.6542 55.7546 28.823 56.0864 29.0562C56.246 29.1684 56.3852 29.2927 56.497 29.4595C56.5453 29.5316 56.5889 29.6078 56.6437 29.6745C56.6757 29.7137 56.7392 29.7538 56.7563 29.8033C56.7461 29.7736 57.1846 29.591 57.226 29.5793C57.4464 29.5171 57.6709 29.5297 57.8868 29.6065C58.2927 29.7508 58.6419 30.0745 58.9288 30.4063C59.0762 30.5767 59.2051 30.7652 59.3146 30.9659C59.3671 31.062 59.415 31.1609 59.4589 31.2619C59.4802 31.3109 59.4943 31.3721 59.5223 31.4161C59.5584 31.4729 59.5827 31.474 59.6481 31.4988C59.9804 31.6245 60.2832 31.8374 60.5138 32.125C60.7471 32.4159 60.8985 32.7742 60.962 33.1516C60.9657 33.1738 60.9679 33.2659 60.98 33.2779C60.9965 33.2945 61.0633 33.2872 61.0886 33.2904C61.1761 33.3015 61.263 33.318 61.3487 33.3399C61.5068 33.3803 61.6606 33.4398 61.8062 33.5176C62.3735 33.8209 62.7792 34.3894 62.9777 35.0291C63.1861 35.7004 63.1824 36.4695 62.9334 37.1283C62.8932 37.2348 62.8453 37.338 62.7891 37.4357C62.7546 37.4957 62.7434 37.4959 62.7658 37.5588C62.7908 37.6288 62.8365 37.6969 62.8661 37.7653C62.9629 37.9885 63.0306 38.2253 63.0733 38.4671C63.1434 38.8638 63.1782 39.2807 63.109 39.6804C63.0769 39.866 63.0209 40.0474 62.9356 40.2127C62.892 40.297 62.8411 40.3769 62.7836 40.4509C62.7537 40.4893 62.722 40.5259 62.6888 40.5611C62.6699 40.5811 62.645 40.5987 62.6289 40.6211C62.5895 40.6758 62.5812 40.6308 62.6015 40.7111C62.6299 40.8233 62.6943 40.934 62.7337 41.0432C62.7743 41.1557 62.811 41.2697 62.8446 41.3849C62.9126 41.6181 62.9701 41.8555 63.006 42.0971C63.075 42.5608 63.0629 43.0548 62.8599 43.4804C62.7731 43.6625 62.6485 43.8221 62.4975 43.9464C62.4236 44.0071 62.3435 44.0595 62.2595 44.1025C62.2163 44.1247 62.1612 44.1342 62.1415 44.1793C62.1204 44.2278 62.1518 44.3241 62.159 44.3783C62.2214 44.8499 62.2527 45.3451 62.1229 45.8073C62.0034 46.233 61.7403 46.6088 61.3986 46.8577C60.7358 47.3404 59.8423 47.3132 59.1459 46.9267C58.9643 46.826 58.7945 46.7009 58.643 46.5534C58.2572 47.1144 57.4633 47.0967 56.8994 46.9368C56.1969 46.7376 55.6333 46.2099 55.3085 45.5166C54.8644 46.1006 53.9324 45.9111 53.6245 45.2775C53.5491 45.1225 53.5044 44.9516 53.4824 44.7786C53.4708 44.6877 53.4782 44.5959 53.4695 44.5057C53.4584 44.3908 53.3873 44.279 53.3464 44.1678C53.2669 43.9514 53.2175 43.7278 53.2153 43.4943C53.2142 43.3724 53.2285 43.2537 53.2393 43.1327C53.2489 43.0239 53.221 42.9225 53.2051 42.8151C53.3853 42.8471 53.6048 42.7946 53.7745 42.7382C53.9411 42.6828 54.0971 42.5369 54.2146 42.4037C54.4876 42.0944 54.6544 41.6889 54.7684 41.2853C55.0188 40.3994 54.9162 39.3367 54.0915 38.8505C53.7073 38.624 52.5563 38.6248 52.0987 38.7367C51.6176 38.8544 51.0721 40.0013 51.0453 40.1091C51.0287 40.1759 51.037 40.2584 50.9803 40.3029C50.8556 40.4006 50.65 40.231 50.558 40.1473C50.3993 40.0028 50.2861 39.8105 50.188 39.6157C49.9744 39.1911 49.8022 38.7358 49.6806 38.271C49.5868 37.9127 49.5268 37.5432 49.4042 37.194C49.2822 36.8465 49.09 36.5359 48.791 36.3391C48.4657 36.125 48.0929 36.0122 47.7359 35.8776C47.382 35.7443 47.0342 35.5813 46.7599 35.2983C46.6995 35.2361 46.6409 35.17 46.5924 35.0967C46.5541 35.0389 46.5162 34.9281 46.4578 34.8915C46.367 34.8344 46.2345 34.9828 46.156 35.0366C45.7687 35.3024 45.4455 35.6731 45.1849 36.078C44.9257 36.4807 44.713 36.8682 44.5402 37.3178C44.412 37.6513 44.332 38.0785 44.1066 38.3518C44.0059 38.4738 43.2578 38.5476 43.0154 38.4411C42.7731 38.3345 42.5015 38.0579 42.4202 37.8845C42.3369 37.707 42.317 37.5121 42.3526 37.3178C42.3735 37.2035 42.4163 37.0968 42.4396 36.9845C42.4593 36.8902 42.4772 36.8011 42.5197 36.7147C42.6002 36.551 42.7378 36.4333 42.9036 36.3841C42.731 36.2122 42.5879 36.0064 42.489 35.7765C42.3861 35.5376 42.2989 35.247 42.2742 34.9848C42.2541 34.7718 42.2851 34.5511 42.393 34.3681C42.5063 34.1761 42.7068 34.0508 42.8804 33.931C42.6153 33.707 42.3884 33.4345 42.2019 33.1328C41.8392 32.5461 41.6149 31.8066 41.7991 31.1072Z" fill="#191847"/>
<path fill-rule="evenodd" clip-rule="evenodd" d="M64.4534 95.7042C73.2899 95.7042 80.4534 102.868 80.4534 111.704V119C80.4534 127.837 73.2899 135 64.4534 135H53.3334C44.4968 135 37.3334 127.837 37.3334 119V111.704C37.3334 102.868 44.4968 95.7042 53.3334 95.7042H64.4534ZM68.24 104.577C70.4492 104.577 72.24 106.368 72.24 108.577V122.127C72.24 124.336 70.4492 126.127 68.24 126.127H49.5467C47.3376 126.127 45.5467 124.336 45.5467 122.127V108.577C45.5467 106.368 47.3376 104.577 49.5467 104.577H68.24Z" fill="#C5CFD6"/>
<path fill-rule="evenodd" clip-rule="evenodd" d="M23.9247 113.001C22.8337 117.129 20.1156 124.955 16.3572 133.942L12.7858 132.816C15.9103 112.136 18.5106 98.4457 20.0001 94.2788C20.9843 91.5257 28.4296 91.8483 27.5731 97.3879C27.2139 99.711 25.7928 105.932 23.9247 113.001ZM38.6043 98.354C44.4285 99.6576 56.5044 104.266 59.9527 105.739C62.1199 106.664 60.7228 109.803 58.874 109.528C58.5609 109.482 57.4532 109.348 55.8005 109.148C50.4918 108.506 39.5592 107.185 31.2676 105.896C26.9016 105.217 29.2502 96.3819 33.7834 97.3168C35.3085 97.6314 36.9306 97.9794 38.6043 98.354Z" fill="#B28B67"/>
<path fill-rule="evenodd" clip-rule="evenodd" d="M19.7718 91.9451C20.3673 89.8459 47.4351 82.3944 47.4351 82.3944H49.6533V84.6275L31.0011 94.8855C31.0259 95.2165 31.0107 95.5663 30.9505 95.9353C31.0852 103.54 28.0726 109.221 25.0899 114.846C23.1394 118.524 21.2016 122.178 20.1652 126.33L13.3124 125.226C13.5121 124.674 13.8277 122.187 14.2593 118.787C15.3475 110.214 17.1727 95.8338 19.7333 92.0292C19.7423 92.0159 19.7514 92.0028 19.7606 91.9896C19.7639 91.9748 19.7676 91.9599 19.7718 91.9451Z" fill="#1F28CF"/>
<path fill-rule="evenodd" clip-rule="evenodd" d="M48.1036 100.978C49.8102 100.609 51.3818 100.279 52.7266 100.024C61.4132 98.3783 63.9463 93.3548 62.4486 82.3944H46.4437C43.8293 83.2058 30.2422 89.3614 23.1926 92.6355C18.5268 94.8025 19.9977 102.614 22.64 104.647C22.6544 104.772 22.7019 104.857 22.7866 104.894C32.8042 109.38 41.3468 109.045 46.8324 108.83C49.1299 108.74 50.8912 108.671 52 108.986L53.7374 103.065L48.1036 100.978Z" fill="#2B44FF"/>
<path fill-rule="evenodd" clip-rule="evenodd" d="M57.9759 106.874C58.2052 105.739 59.0753 104.763 60.1669 105.042C60.398 105.101 60.6048 105.171 60.757 105.251C61.4702 105.626 62.7224 106.604 62.7224 106.604C62.3189 107.498 55.4698 122.669 55.4698 122.669C55.4698 122.669 53.2708 122.285 53.7271 120.856C54.1834 119.426 54.4632 118.469 54.4632 118.469L54.731 110.068C54.7489 109.506 55.1964 109.082 55.7328 109.119L56.3589 109.161C56.3589 109.161 57.4622 108.196 57.8147 107.415C57.8813 107.268 57.9341 107.08 57.9759 106.874Z" fill="#E4E4E4"/>
<path fill-rule="evenodd" clip-rule="evenodd" d="M15.6939 132.473C16.8983 132.294 18.2662 132.64 18.4948 133.836C18.5352 134.048 18.5599 134.242 18.5599 134.4C18.5599 135.257 18.2956 136.901 18.2956 136.901C17.3751 136.901 1.75104 136.901 1.75104 136.901C1.75104 136.901 1.10614 134.598 2.49559 134.414C3.88504 134.231 4.80406 134.083 4.80406 134.083L11.7891 130.719C12.3166 130.465 12.9486 130.716 13.1573 131.263L13.3787 131.843C13.3787 131.843 14.665 132.492 15.4692 132.492C15.5389 132.492 15.6143 132.485 15.6939 132.473Z" fill="#E4E4E4"/>
<path fill-rule="evenodd" clip-rule="evenodd" d="M24.3173 86.1204L32.6269 77.3628L35.3868 82.5219L26.746 88.0257C24.5794 91.7128 23.3069 93.306 22.9285 92.8051C22.6095 92.3828 22.7557 91.9199 22.8904 91.4936C22.9953 91.1615 23.0932 90.8515 22.9587 90.6001C22.6516 90.026 20.9168 90.3548 19.2829 90.7428C17.649 91.1309 18.027 90.2637 18.3743 89.8112C19.9186 88.4648 21.8996 87.2345 24.3173 86.1204ZM73.2965 98.8442C72.4369 96.9602 69.5096 78.5979 69.5096 78.5979L63.3797 78.6239C63.3797 78.6239 69.0571 98.4241 69.5096 99.6356C70.0974 101.209 69.0989 103.496 68.4219 105.047C68.3171 105.286 68.2201 105.509 68.1378 105.708C69.0772 106.162 69.5285 105.613 70.0043 105.034C70.5416 104.381 71.1103 103.689 72.4488 104.362C72.9659 104.622 73.4553 104.929 73.9334 105.229C75.5849 106.266 77.102 107.219 79.1658 105.843C79.493 105.625 79.8515 104.804 78.9852 104.162C76.827 102.563 73.7168 99.7653 73.2965 98.8442Z" fill="#B28B67"/>
<path fill-rule="evenodd" clip-rule="evenodd" d="M52.0894 50.8095L49.5529 50.3395C45.1859 62.1251 37.5615 72.8338 26.6799 82.4657L34.9026 93.2582C45.783 79.5437 52.4897 65.3942 52.0894 50.8095Z" fill="#191847"/>
<path fill-rule="evenodd" clip-rule="evenodd" d="M63.1466 85.2465H40.5599C40.5599 85.2465 48.4092 64.6282 48.4092 50.2165L55.2224 49.1198C60.577 58.4235 62.0892 69.8782 63.1466 85.2465Z" fill="#DDE3E9"/>
<path fill-rule="evenodd" clip-rule="evenodd" d="M73.4133 95.7043C70.9432 65.5973 55.3722 49.1198 55.3722 49.1198L55.3667 49.125C55.3658 49.1232 55.3649 49.1215 55.364 49.1198H54.9193C54.121 49.1494 52.4876 49.2268 52.4876 49.2268L50.8412 54.3096C50.58 63.6054 47.7903 91.7766 47.7903 91.7766H62.5747C62.5495 93.0682 62.4939 94.3781 62.4044 95.7043H73.4133Z" fill="#2F3676"/>
<path fill-rule="evenodd" clip-rule="evenodd" d="M62.5721 91.9015C62.6902 86.2766 62.2283 80.995 61.4577 76.2155C61.0547 81.8869 60.2124 88.7114 58.4533 91.9015H62.5721Z" fill="black" fill-opacity="0.1"/>
<path fill-rule="evenodd" clip-rule="evenodd" d="M59.3008 82.0775L52 78.4108V82.0775H59.3008Z" fill="white" fill-opacity="0.2"/>
</svg>
