<svg width="300" height="426" viewBox="0 0 300 426" fill="none" xmlns="http://www.w3.org/2000/svg">
<path fill-rule="evenodd" clip-rule="evenodd" d="M144.065 75.2443C137.589 79.1475 131.226 81.0333 128.24 80.2635C120.75 78.333 120.062 50.9351 125.857 40.1339C131.651 29.3328 161.442 24.625 162.943 46.0255C163.464 53.4529 160.346 60.0814 155.738 65.4901L164 104H140L144.065 75.2443Z" fill="#B28B67"/>
<path fill-rule="evenodd" clip-rule="evenodd" d="M142.865 48.3888C140.789 45.2978 138.796 42.94 136.203 41.5708C125.652 41.7376 124.417 39.8461 124.417 33.4708C126.121 32.2514 132.134 30.198 138.868 29.6205C142.303 28.6374 146.373 28.8223 150.293 30.4621C155.132 31.8351 159.229 34.7921 161.039 40.3282C167.588 51.6289 162.618 63.3926 155.92 67.4111C154.137 65.2988 152.581 63.2517 151.192 61.2921C152.308 60.2026 153 58.6821 153 56.9999C153 53.6862 150.314 50.9999 147 50.9999C146.756 50.9999 146.516 51.0144 146.28 51.0426C146.131 55.1856 145.517 69.2025 143.906 74.0714C142.005 79.8115 130.916 81.2209 127.049 81.2209C123.708 81.2209 123.822 78.0577 123.904 75.7907C123.915 75.4642 123.927 75.1563 123.927 74.8791C123.927 74.3 124.68 74.3015 125.531 74.3032C126.636 74.3054 127.906 74.3079 127.906 73.0399C127.906 71.6578 125.996 70.5976 124.287 69.6489C123.221 69.0571 122.232 68.5086 121.835 67.9524C120.581 66.1976 120.159 63.8309 122.05 63.8309C123.084 63.8309 124.502 64.4269 126.209 65.1439C128.785 66.2263 132.017 67.5846 135.574 67.5846C141.45 67.5846 142.847 48.626 142.865 48.3888Z" fill="#191847"/>
<path fill-rule="evenodd" clip-rule="evenodd" d="M172 187L135.745 314.227L109.293 408H90L118.109 187H172Z" fill="#191847"/>
<path fill-rule="evenodd" clip-rule="evenodd" d="M181.696 187C182.534 252.574 185.394 288.34 186.274 294.298C187.155 300.256 200.468 338.156 226.214 408H206.227C173.451 340.997 155.154 303.096 151.337 294.298C147.521 285.5 135.741 249.734 118 187H181.696Z" fill="#2F3676"/>
<path fill-rule="evenodd" clip-rule="evenodd" d="M228 426L227 405L206 405C191.064 415.5 167 422 167 422V426H205L218 424V426H228Z" fill="#191847"/>
<path fill-rule="evenodd" clip-rule="evenodd" d="M112 426L111 405L90 405C75.0636 415.5 51 422 51 422V426H89L102 424V426H112Z" fill="#191847"/>
<path fill-rule="evenodd" clip-rule="evenodd" d="M249.636 223.284C245.906 217.804 224.333 159.536 224.333 159.536L206.621 162.108C206.621 162.108 235.139 223.982 237.199 227.554C239.874 232.193 237.508 239.812 235.903 244.978C235.655 245.777 235.425 246.518 235.234 247.179C238.605 248.153 239.888 246.223 241.24 244.189C242.767 241.892 244.383 239.461 249.197 240.928C251.057 241.495 252.844 242.223 254.59 242.934C260.62 245.391 266.16 247.648 272.524 242.37C273.532 241.533 274.382 238.797 271.176 237.203C263.187 233.231 251.459 225.963 249.636 223.284ZM57.4545 196.202L87.6411 170.61L95.8913 187.507L65.2943 202.777C57.1145 213.868 52.4364 218.581 51.2599 216.914C50.2679 215.509 50.867 214.087 51.4189 212.776C51.8488 211.756 52.2501 210.803 51.8481 209.98C50.9301 208.1 44.958 208.722 39.3159 209.555C33.6738 210.388 35.1504 207.748 36.431 206.406C41.9791 202.536 48.9869 199.134 57.4545 196.202Z" fill="#B28B67"/>
<path fill-rule="evenodd" clip-rule="evenodd" d="M150.305 87.3321L139.33 83.7027C124.443 120.893 102.239 156.876 65.1428 187.27L74.3164 203.097C106.919 183.892 137.781 168.973 150.305 140.155C154.508 130.483 150.648 98.897 150.305 87.3321Z" fill="#C5CFD6"/>
<path fill-rule="evenodd" clip-rule="evenodd" d="M188 192C188 192 140.843 197 113.764 192C111.527 191.587 111.174 187.842 112.212 185.301C128.364 145.724 139.44 111.192 139.44 83.7026C143.885 85.9439 155 84.3744 155 84.3744C174.914 112.703 184.067 145.206 188 192Z" fill="#323337"/>
<path fill-rule="evenodd" clip-rule="evenodd" d="M160.707 82.0001C160.193 81.6538 159.921 81.4814 159.921 81.4814L159.951 82.0001H151.652C151.235 84.4527 150.624 93.5431 149.733 106.798C146.496 154.965 139.564 258.127 124.809 297.606H226.615C224.467 252.722 207.918 199.047 190.776 153.47C203.426 166.056 218.199 187.153 230.138 222.273L249.207 217.378C229.774 133.638 172.838 90.4518 161.79 82.7439C161.683 82.4947 161.575 82.2467 161.468 82.0001H160.707Z" fill="#DDE3E9"/>
</svg>
