<svg width="132" height="195" viewBox="0 0 132 195" fill="none" xmlns="http://www.w3.org/2000/svg">
<path fill-rule="evenodd" clip-rule="evenodd" d="M64.428 57.7666C61.6219 59.2876 58.8648 60.0224 57.5705 59.7224C54.3252 58.9702 54.0268 48.294 56.5379 44.0851C59.049 39.8762 71.958 38.0417 72.6087 46.3809C72.8345 49.2751 71.4831 51.8581 69.4863 53.9657L73.0667 68.9719H62.6666L64.428 57.7666Z" fill="#B28B67"/>
<path fill-rule="evenodd" clip-rule="evenodd" d="M58.8815 41.3096C59.1197 41.1817 59.6181 40.912 59.8706 40.8143C59.9303 40.7908 60.3487 40.5224 60.3599 40.5258C60.6767 40.6219 61.5939 40.9767 61.6726 41.2832C61.6848 41.3065 61.6968 41.3282 61.7085 41.3473C61.8384 41.5598 61.9577 41.7775 62.0714 41.9979C62.3211 42.4817 62.5366 42.9873 62.7424 43.489C63.1432 44.4659 63.4915 45.4657 63.8117 46.4677C64.1377 47.4878 64.4143 48.5197 64.724 49.544C65.1697 51.0178 65.7401 52.4555 66.1827 53.9288C66.4654 54.8695 66.6226 55.8212 66.5483 56.7894C66.5476 56.8011 66.5472 56.8125 66.546 56.8244C66.5456 56.8292 66.5449 56.834 66.5444 56.8388C66.5318 56.9877 66.5138 57.1369 66.4898 57.2865C66.4688 57.4145 66.4478 57.5429 66.4253 57.6713C66.0211 56.9464 65.7124 56.1476 65.3848 55.3894C65.3528 55.3152 65.3222 55.2404 65.2924 55.1654C65.1868 55.0116 65.0791 54.859 64.9702 54.7069C64.2835 53.7479 63.594 52.7925 62.9355 51.8161C61.7511 50.0601 60.5777 48.267 59.1735 46.6545C58.7589 46.1783 58.3346 45.7094 57.9252 45.2294C57.6922 44.9562 57.4652 44.6784 57.2457 44.3957C57.0887 44.1936 56.4062 43.489 56.6534 43.0656C56.7798 42.849 58.2635 41.6413 58.8815 41.3096Z" fill="#2C2C2C"/>
<path fill-rule="evenodd" clip-rule="evenodd" d="M59.7953 40.8497C59.5636 40.9197 59.6764 40.4862 59.9007 40.3336C60.9403 39.6269 64.9144 39.3705 68.3729 40.016C70.6897 40.4485 73.3842 41.525 75.2347 42.9088C76.9029 44.1563 78.0501 46.1562 78.6408 48.0884C79.261 50.1172 79.3549 52.2324 79.0094 54.3129C78.9335 54.7699 78.7704 55.2054 78.6795 55.6527C78.5772 56.1564 78.5247 56.6414 78.3422 57.1314C78.2305 57.4315 78.0406 57.7256 77.9453 58.0273C77.8365 58.3716 77.9028 58.6902 77.9822 59.0404C78.1115 59.6112 78.2718 60.1808 78.4997 60.7259C78.8419 61.5445 79.2571 62.3112 79.5175 63.1607C79.8639 64.291 81.3129 67.9692 80.2539 68.9718H60.0959C60.6035 67.7267 62.1271 66.2613 62.4356 64.9285C62.6172 64.1433 62.7037 62.4286 62.7227 62.3663C63.177 59.5504 64.0639 58.2057 64.6195 57.7177C65.175 57.2297 65.9149 57.0796 65.953 56.6563C66.1106 54.9056 65.3364 53.228 64.7687 51.5941C64.0921 49.6466 63.5962 47.6509 62.8987 45.7101C62.5898 44.8506 60.9981 40.4862 59.7953 40.8497Z" fill="#8991DC"/>
<path fill-rule="evenodd" clip-rule="evenodd" d="M67.623 49.1539C67.7865 46.1904 67.623 45.0327 66.8629 42.8638H67.3316C68.0726 43.7245 68.6925 46.3573 67.9959 49.1539H67.623ZM76.8088 49.0142C76.8906 48.8343 76.9743 48.6501 77.0609 48.4611L77.3589 48.5899C76.4187 51.6822 75.2752 54.0695 71.3482 56.0708L71.0428 55.8784C74.7567 53.5301 75.553 51.7777 76.8088 49.0142ZM71.2407 45.3157C71.2013 45.5839 71.1637 45.8451 71.127 46.1002C70.5625 50.0179 70.2045 52.5023 67.0577 57.0079L67.4143 57.106C70.8638 52.9275 71.4106 49.5171 71.5736 45.3398L71.2407 45.3157ZM74.638 58.0144L74.9431 58.3479C73.4148 58.6355 72.3757 59.6462 71.1846 60.8049C69.9242 62.0308 68.4936 63.4224 66.1332 64.2984L65.695 64.0596C68.2713 62.855 69.4699 61.6578 70.5164 60.6125C71.5998 59.5303 72.5203 58.6109 74.638 58.0144Z" fill="black" fill-opacity="0.2"/>
<path fill-rule="evenodd" clip-rule="evenodd" d="M39.9933 127.254C43.7552 134.428 49.6335 151.844 49.6335 151.844L44.643 153.894C44.643 153.894 31.9806 135.587 24.242 123.073C24.6026 125.89 24.9698 129.062 25.3101 132.396C26.1165 140.295 25.3106 157.36 24.8768 162.289C24.6042 165.387 19.9228 164.738 19.4858 162.281C19.4118 161.865 19.1102 160.404 18.6601 158.224C16.4531 147.535 10.677 119.558 10.6667 112.708C10.6626 109.952 16.651 107.475 20.2203 109.403C22.672 107.05 27.3121 105.694 29.9778 109.58C31.6724 112.051 35.699 119.064 39.9933 127.254Z" fill="#B28B67"/>
<path fill-rule="evenodd" clip-rule="evenodd" d="M49.2767 145.396L32.1481 108.908C28.0447 102.973 16.54 110.116 17.9393 113.559C21.1163 121.375 37.2734 146.678 38.2199 149.007L49.2767 145.396Z" fill="#1F28CF"/>
<path fill-rule="evenodd" clip-rule="evenodd" d="M48.1908 150.564C48.9592 149.766 50.2995 149.564 51.1885 150.322C51.6569 150.722 52.0951 151.143 52.3103 151.478C52.8963 152.391 53.6825 154.318 53.6825 154.318C52.5049 154.93 32.5162 165.307 32.5162 165.307C32.5162 165.307 30.1163 163.283 31.7683 162.164C33.4204 161.046 34.4949 160.278 34.4949 160.278L41.4616 151.647C41.7945 151.234 42.4377 151.162 42.9034 151.484L43.9338 152.198C43.9338 152.198 46.0227 152.034 47.0515 151.5C47.4109 151.313 47.8159 150.953 48.1908 150.564Z" fill="#E4E4E4"/>
<path fill-rule="evenodd" clip-rule="evenodd" d="M23.7547 160.244C24.8087 159.904 26.01 160.332 26.3597 161.383C26.5487 161.951 26.7 162.529 26.7 162.924C26.7 163.978 26.3094 166 26.3094 166C24.9497 166 1.86863 166 1.86863 166C1.86863 166 0.915931 163.168 2.96853 162.942C5.02112 162.716 6.37878 162.534 6.37878 162.534L17.2616 158.171C17.7567 157.973 18.3205 158.198 18.5427 158.683L19.0459 159.78C19.0459 159.78 20.9461 160.578 22.1341 160.578C22.5781 160.578 23.1777 160.429 23.7547 160.244Z" fill="#E4E4E4"/>
<path fill-rule="evenodd" clip-rule="evenodd" d="M9.46604 115.511C9.46604 125.864 14.9333 150.012 14.9368 152.291L26.6999 152.3C26.6999 152.3 24.1172 119.979 24.8683 119.631C25.6194 119.283 55.657 122.328 64.6658 122.328C77.6565 122.328 83.0305 114.961 83.4666 101.315H57.7325C52.4928 101.819 25.1621 106.776 15.012 108.48C10.6665 109.21 9.46604 112.66 9.46604 115.511Z" fill="#2B44FF"/>
<path fill-rule="evenodd" clip-rule="evenodd" d="M103.661 118.814C102.391 116.497 96.0462 86.6823 96.0462 86.6823L86.5573 86.7143C86.5573 86.7143 97.3978 118.297 98.0663 119.787C98.9347 121.722 97.4596 124.534 96.4594 126.441C96.3047 126.736 96.1613 127.009 96.0398 127.254C97.4276 127.812 98.0943 127.137 98.7971 126.426C99.5909 125.622 100.431 124.771 102.408 125.599C103.172 125.918 103.895 126.296 104.601 126.665C107.041 127.941 109.282 129.112 112.331 127.42C112.815 127.152 113.344 126.142 112.064 125.353C108.876 123.387 104.281 119.947 103.661 118.814ZM23.744 107.197L36.0194 96.4282L40.0965 102.772L27.3317 109.54C24.131 114.073 22.2512 116.032 21.6923 115.417C21.221 114.897 21.437 114.328 21.6359 113.804C21.7909 113.395 21.9356 113.014 21.7369 112.705C21.2833 111.999 18.7205 112.404 16.3067 112.881C13.8929 113.358 14.4514 112.292 14.9645 111.735C17.2458 110.08 20.1723 108.567 23.744 107.197Z" fill="#B28B67"/>
<path fill-rule="evenodd" clip-rule="evenodd" d="M67.1321 62.4768L63.385 61.8989C57.4822 80.6623 27.1538 93.4522 25.292 100.466C24.6092 103.039 26.6679 104.339 25.6045 105.123L30.475 108.329C31.2998 107.463 33.0598 109.046 36.7354 107.939C40.411 106.832 67.1321 84.6943 67.1321 62.4768Z" fill="#DB2721"/>
<path fill-rule="evenodd" clip-rule="evenodd" d="M60.8091 64.1616C61.2594 78.5532 56.2526 86.8524 52.4468 93.1609C49.5053 98.0368 47.2812 101.723 48.8486 106.115C51.786 114.344 79.9013 123.19 84.7665 115.124C86.7165 111.89 87.6117 107.987 87.7275 103.742C88.9537 106.947 89.9801 109.828 90.681 112.135C91.4204 114.568 93.4203 115.789 94.9273 116.709C95.9638 117.342 96.7671 117.832 96.7671 118.477L103.141 116.895C102.966 116.022 103.357 115.33 103.83 114.496C104.521 113.275 105.387 111.748 104.908 108.896C100.353 81.7466 82.8708 67.164 75.8209 62.2861C75.5748 60.1595 73.687 58.5663 71.5334 58.7018L64.3879 59.1511C62.6127 59.2627 61.198 60.5149 60.8037 62.1483L60.7133 62.1627C60.7207 62.278 60.7278 62.3929 60.7345 62.5074C60.6931 62.7935 60.6825 63.0889 60.7059 63.3901L60.7205 63.5773C60.736 63.7767 60.7659 63.9718 60.8091 64.1616Z" fill="#FF4133"/>
</svg>
